# xmcd
#
# Track frame offsets:
#	150
#	14226
#	28566
#	41908
#	55163
#	68483
#	83988
#	96744
#	114527
#	130490
#	147841
#	164036
#	184647
#	196687
#	212575
#	224593
#	240218
#
# Disc length: 3371 seconds
# Revision: 0
# Processed by: cddbd v1.5.2PL0 Copyright (c) Steve Scherf et al.
# Submitted via: dBpowerAMP V12.0
#
DISCID=fd0d2911
DTITLE=Various Artist - Aces - The Definitive Capitol Collection [CD 2)
DYEAR=2018
DGENRE=Country
TTITLE0=Suzy Bogguss - Under The Gun
TTITLE1=Suzy Bogguss - Drive South
TTITLE2=Suzy Bogguss - I Want To Be A Cowboy's Sweetheart
TTITLE3=Suzy Bogguss - Outbound Plane
TTITLE4=Suzy Bogguss - Lovin' A Hurricane
TTITLE5=Suzy Bogguss - Other Side Of The Hill
TTITLE6=Suzy Bogguss - All Things Made New Again
TTITLE7=Suzy Bogguss - She Said, He Heard
TTITLE8=Suzy Bogguss - Somewhere Between
TTITLE9=Suzy Bogguss - Cross My Broken Heart
TTITLE10=Suzy Bogguss featuring Billy Dean - Something Up My Sleeve
TTITLE11=Suzy Bogguss - Letting Go
TTITLE12=Suzy Bogguss - No Green Eyes
TTITLE13=Suzy Bogguss - Saying Goodbye To A Friend
TTITLE14=Suzy Bogguss - Give Me Some Wheels
TTITLE15=Suzy Bogguss - Music On The Wind
TTITLE16=Suzy Bogguss featuring Lee Greenwood - Hopelessly Yoyrs
EXTD=
EXTT0=
EXTT1=
EXTT2=
EXTT3=
EXTT4=
EXTT5=
EXTT6=
EXTT7=
EXTT8=
EXTT9=
EXTT10=
EXTT11=
EXTT12=
EXTT13=
EXTT14=
EXTT15=
EXTT16=
PLAYORDER=
